<?xml version="1.0" encoding="UTF-8"?>
<svg width="512" height="512" viewBox="0 0 512 512" xmlns="http://www.w3.org/2000/svg">
    <defs>
        <linearGradient id="bgGradient" x1="0%" y1="0%" x2="100%" y2="100%">
            <stop offset="0%" style="stop-color:#60a5fa;stop-opacity:1" />
            <stop offset="100%" style="stop-color:#3b82f6;stop-opacity:1" />
        </linearGradient>
        <filter id="shadow" x="-50%" y="-50%" width="200%" height="200%">
            <feDropShadow dx="0" dy="4" stdDeviation="8" flood-color="#000000" flood-opacity="0.3"/>
        </filter>
    </defs>
    
    <!-- Background with rounded corners -->
    <rect width="512" height="512" rx="80" ry="80" fill="url(#bgGradient)"/>
    
    <!-- Traced antelope silhouette (unified white color) -->
    <g transform="translate(256, 256) scale(0.048, -0.048) translate(-5260, -4750)" filter="url(#shadow)" fill="#ffffff">
        <!-- Antelope body (without background rectangle) -->
        <path d="M5136 8885 c-7 -234 -42 -372 -147 -590 -72 -150 -160 -275 -278 -398 -161 -167 -248 -232 -726 -542 -252 -164 -377 -267 -492 -409 -126 -156 -191 -304 -227 -523 l-5 -33 59 0 c56 0 60 2 75 30 9 17 55 70 103 120 75 76 100 95 176 131 48 22 138 53 199 69 128 32 315 66 322 58 7 -7 -20 -142 -40 -203 -93 -280 -267 -442 -517 -480 l-37 -6 103 -152 c57 -84 135 -204 173 -267 197 -325 404 -613 511 -710 l68 -62 -83 -86 c-214 -223 -389 -490 -491 -747 -84 -213 -130 -395 -139 -549 l-6 -99 -29 34 c-243 284 -423 658 -522 1079 -44 189 -89 490 -102 688 l-7 104 -31 -6 c-160 -33 -834 -136 -890 -136 -34 0 -53 7 -87 34 -79 60 -159 180 -159 238 0 16 73 95 255 278 l255 256 0 47 c0 62 19 97 95 177 l62 65 6 155 c10 239 44 402 128 596 127 299 239 428 656 760 339 270 470 418 599 676 77 153 111 265 160 522 15 76 19 86 27 65 19 -46 21 -337 3 -450 -18 -111 -70 -277 -118 -372 -111 -222 -229 -361 -599 -704 -252 -234 -330 -332 -426 -531 -61 -126 -104 -279 -128 -446 -25 -182 -25 -183 44 -170 28 6 31 10 31 43 1 111 79 349 165 501 152 269 365 452 854 733 381 218 539 333 708 511 147 154 271 356 329 532 31 95 94 359 94 395 0 14 3 29 8 33 15 16 23 -104 18 -259z m-423 -4120 c66 -28 212 -66 332 -87 114 -20 163 -22 995 -28 1017 -8 1007 -7 1292 -106 272 -95 485 -225 686 -419 190 -183 276 -363 297 -624 l7 -85 -123 109 c-68 60 -148 131 -177 159 l-53 51 6 -50 c13 -98 -24 -560 -62 -765 -20 -113 -14 -162 35 -264 68 -143 181 -294 322 -431 l62 -60 -4 -907 -3 -908 -156 0 -157 0 0 788 -1 787 -63 53 c-35 30 -115 92 -178 140 -497 370 -621 468 -797 630 -115 106 -254 265 -335 387 -33 50 -61 91 -63 93 -2 2 -27 -10 -56 -27 -253 -141 -743 -251 -1121 -251 l-138 0 0 -1306 0 -1306 -22 6 c-13 3 -83 6 -155 6 l-133 0 0 703 0 704 -44 199 c-55 246 -90 419 -121 592 -12 73 -25 135 -26 136 -2 2 -76 41 -164 86 -194 99 -373 218 -517 341 l-108 92 0 121 c0 392 160 811 446 1170 70 89 249 286 259 286 1 0 19 -7 38 -15z m1869 -1952 c139 -167 411 -417 745 -687 93 -74 183 -148 202 -163 l34 -29 -40 -70 c-22 -38 -111 -206 -198 -374 -153 -296 -416 -798 -537 -1027 l-59 -113 -171 0 c-93 0 -168 3 -166 8 2 4 53 108 114 232 266 541 584 1202 584 1213 0 9 -20 27 -200 177 -74 62 -158 134 -185 159 -28 25 -116 103 -196 173 -157 138 -422 405 -414 418 3 4 29 14 57 20 73 18 273 87 317 110 20 11 41 19 46 20 6 0 36 -30 67 -67z m-2130 -216 l143 -73 7 -50 c3 -27 14 -98 24 -159 15 -97 18 -218 21 -1044 l4 -934 -32 7 c-17 3 -85 6 -150 6 l-119 0 0 698 0 698 -34 150 c-19 82 -37 160 -40 174 -16 68 -157 652 -169 695 l-13 51 108 -74 c59 -40 172 -106 250 -145z"/>
        <!-- Eye detail -->
        <path d="M2955 6036 c-130 -21 -186 -61 -246 -179 l-20 -37 73 5 c148 11 180 16 206 29 39 20 95 83 131 144 l30 52 -47 -1 c-26 -1 -83 -7 -127 -13z"/>
    </g>
</svg>